<?xml version="1.0" ?>
<!-- Uploaded to: SVG Repo, www.svgrepo.com, Generator: SVG Repo Mixer Tools -->
<svg fill="#000000" width="800px" height="800px" viewBox="0 0 64 64" xmlns="http://www.w3.org/2000/svg">
<g data-name="Magic Wand" id="Magic_Wand-2">
<path d="M55.76,8.24a4.26,4.26,0,0,0-6,0L8.24,49.76a4.24,4.24,0,0,0,6,6L55.76,14.24A4.26,4.26,0,0,0,55.76,8.24Zm-7.89,11-3.16-3.16L48,12.83,51.17,16Zm-35,35.05a2.28,2.28,0,0,1-3.16,0,2.22,2.22,0,0,1,0-3.16L43.29,17.54l3.17,3.17ZM54.34,12.82l-1.76,1.76-3.16-3.16,1.76-1.76a2.23,2.23,0,1,1,3.16,3.16Z"/>
<path d="M12.71,21a9.23,9.23,0,0,1,4.08,4.07c.62,1.24,1,2.06,1.94,2.06s1.32-.82,1.94-2.06A9.23,9.23,0,0,1,24.75,21c1.24-.63,2.06-1,2.06-2s-.82-1.32-2.06-1.94a9.25,9.25,0,0,1-4.08-4.08c-.62-1.24-1-2.05-1.94-2.05s-1.32.81-1.94,2.05a9.25,9.25,0,0,1-4.08,4.08c-1.24.62-2.06,1-2.06,1.94S11.47,20.4,12.71,21Zm.9-2.11a11.22,11.22,0,0,0,5-5l.16-.31.16.31a11.22,11.22,0,0,0,5,5l.31.16-.31.16a11.22,11.22,0,0,0-5,5l-.16.31-.16-.31a11.22,11.22,0,0,0-5-5l-.31-.16Z"/>
<path d="M55.4,35c.22-.81-.38-1.34-1.21-2.08a6.83,6.83,0,0,1-2.14-3.72c-.23-1.08-.39-1.87-1.21-2.09s-1.34.38-2.08,1.21A6.9,6.9,0,0,1,45,30.49c-1.08.22-1.87.39-2.09,1.2s.38,1.35,1.21,2.08a6.9,6.9,0,0,1,2.15,3.72c.22,1.09.39,1.87,1.2,2.09a1.26,1.26,0,0,0,.33.05c.64,0,1.12-.55,1.76-1.26a6.76,6.76,0,0,1,3.71-2.14C54.4,36,55.18,35.84,55.4,35ZM48.23,36.9a8.9,8.9,0,0,0-2.6-4.49,9,9,0,0,0,4.5-2.6,9,9,0,0,0,2.59,4.5A8.81,8.81,0,0,0,48.23,36.9Z"/>
<path d="M29.23,51.17c.42.73,1.23.69,2.33.62a6.92,6.92,0,0,1,4.15,1.11,3.51,3.51,0,0,0,1.73.8,1.11,1.11,0,0,0,.59-.17c.73-.42.69-1.22.62-2.33a6.9,6.9,0,0,1,1.11-4.14c.61-.93,1.05-1.6.63-2.33s-1.22-.68-2.33-.62A6.83,6.83,0,0,1,33.92,43c-.93-.61-1.6-1-2.33-.63S30.91,43.6,31,44.7a6.92,6.92,0,0,1-1.11,4.15C29.25,49.78,28.81,50.45,29.23,51.17ZM33,44.77a8.88,8.88,0,0,0,5,1.35,8.87,8.87,0,0,0-1.34,5,8.92,8.92,0,0,0-4.71-1.35h-.31A8.89,8.89,0,0,0,33,44.77Z"/>
<path d="M33.54,13.94a1,1,0,0,0,1-1v-1.1a1,1,0,1,0-2,0v1.1A1,1,0,0,0,33.54,13.94Z"/>
<path d="M33.54,19a1,1,0,0,0,1-1V16.84a1,1,0,1,0-2,0V18A1,1,0,0,0,33.54,19Z"/>
<path d="M35.49,15.89H36.6a1,1,0,0,0,0-2H35.49a1,1,0,0,0,0,2Z"/>
<path d="M31.59,13.89H30.48a1,1,0,0,0,0,2h1.11a1,1,0,1,0,0-2Z"/>
<path d="M53,44.47a1,1,0,0,0-2,0v1.11a1,1,0,0,0,2,0Z"/>
<path d="M52,51.58a1,1,0,0,0,1-1V49.47a1,1,0,0,0-2,0v1.11A1,1,0,0,0,52,51.58Z"/>
<path d="M55.07,46.52H54a1,1,0,0,0,0,2h1.11a1,1,0,0,0,0-2Z"/>
<path d="M50.07,46.52H49a1,1,0,0,0,0,2h1.11a1,1,0,0,0,0-2Z"/>
</g>
</svg>