<?xml version="1.0" encoding="UTF-8"?>
<svg xmlns="http://www.w3.org/2000/svg" xmlns:xlink="http://www.w3.org/1999/xlink" width="192px" height="192px" viewBox="0 0 192 192" version="1.1">
<g id="surface1">
<path style=" stroke:none;fill-rule:nonzero;fill:rgb(82.352941%,18.431373%,15.294118%);fill-opacity:1;" d="M 36.921875 74.488281 C 36.921875 74.488281 31.460938 70.574219 35.316406 66.15625 C 35.316406 66.15625 29.238281 60.789062 34.171875 55.746094 C 34.171875 55.746094 30.871094 44.886719 39.875 44.257812 C 39.875 44.257812 38.835938 33.398438 50.753906 34.660156 C 50.753906 34.660156 57.425781 29.855469 62.367188 35.324219 C 62.367188 35.324219 69.121094 31.035156 72.617188 36.398438 "/>
<path style=" stroke:none;fill-rule:nonzero;fill:rgb(82.352941%,18.431373%,15.294118%);fill-opacity:1;" d="M 155.078125 74.488281 C 155.078125 74.488281 160.539062 70.574219 156.683594 66.15625 C 156.683594 66.15625 162.761719 60.789062 157.828125 55.746094 C 157.828125 55.746094 161.128906 44.886719 152.125 44.257812 C 152.125 44.257812 153.164062 33.398438 141.246094 34.660156 C 141.246094 34.660156 134.574219 29.855469 129.632812 35.324219 C 129.632812 35.324219 122.878906 31.035156 119.382812 36.398438 "/>
<path style=" stroke:none;fill-rule:nonzero;fill:rgb(100%,100%,100%);fill-opacity:1;" d="M 157.332031 96 C 157.332031 129.875 129.875 157.332031 96 157.332031 C 62.125 157.332031 34.667969 129.875 34.667969 96 C 34.667969 62.125 62.125 34.667969 96 34.667969 C 129.875 34.667969 157.332031 62.125 157.332031 96 Z M 157.332031 96 "/>
<path style=" stroke:none;fill-rule:nonzero;fill:rgb(82.352941%,18.431373%,15.294118%);fill-opacity:1;" d="M 132.820312 124.125 C 132.820312 124.125 128.605469 146.601562 95.992188 147.484375 C 63.511719 146.308594 59.164062 124.125 59.164062 124.125 C 57.9375 119.511719 55.859375 108.761719 65.246094 113.964844 C 72.445312 117.964844 79.589844 125.617188 95.992188 126.097656 C 112.417969 125.617188 119.539062 117.964844 126.738281 113.964844 C 136.125 108.761719 134.070312 119.511719 132.820312 124.125 Z M 132.820312 124.125 "/>
<path style=" stroke:none;fill-rule:nonzero;fill:rgb(100%,100%,100%);fill-opacity:1;" d="M 95.996094 140.625 C 79.832031 140.625 69.515625 131.796875 66.898438 127.519531 C 64.28125 123.238281 68.367188 124.4375 69.207031 124.84375 C 75.378906 127.820312 79.984375 132.039062 95.996094 132.585938 M 95.996094 140.625 C 112.160156 140.625 122.472656 131.796875 125.089844 127.519531 C 127.710938 123.238281 123.625 124.4375 122.78125 124.84375 C 116.613281 127.820312 112.007812 132.039062 95.996094 132.585938 "/>
<path style="fill:none;stroke-width:2;stroke-linecap:round;stroke-linejoin:round;stroke:rgb(0%,0%,0%);stroke-opacity:1;stroke-miterlimit:10;" d="M 23.443359 21.174316 C 26.342285 19.620117 29.636719 19.561523 32.099121 21.174316 " transform="matrix(2.666667,0,0,2.666667,0,0)"/>
<path style="fill:none;stroke-width:2;stroke-linecap:round;stroke-linejoin:round;stroke:rgb(0%,0%,0%);stroke-opacity:1;stroke-miterlimit:10;" d="M 39.900879 21.174316 C 42.799805 19.620117 46.094238 19.561523 48.556641 21.174316 " transform="matrix(2.666667,0,0,2.666667,0,0)"/>
<path style="fill:none;stroke-width:2;stroke-linecap:round;stroke-linejoin:round;stroke:rgb(0%,0%,0%);stroke-opacity:1;stroke-miterlimit:10;" d="M 49.807617 46.546875 C 49.807617 46.546875 48.228516 54.975586 35.99707 55.306641 C 23.818359 54.865723 22.187988 46.546875 22.187988 46.546875 C 21.728027 44.816895 20.947266 40.785645 24.467285 42.736816 C 27.168457 44.236816 29.847656 47.106445 35.99707 47.286621 C 42.158203 47.106445 44.827148 44.236816 47.52832 42.736816 C 51.04834 40.785645 50.277832 44.816895 49.807617 46.546875 Z M 49.807617 46.546875 " transform="matrix(2.666667,0,0,2.666667,0,0)"/>
<path style="fill:none;stroke-width:2;stroke-linecap:round;stroke-linejoin:round;stroke:rgb(0%,0%,0%);stroke-opacity:1;stroke-miterlimit:10;" d="M 13.845703 27.933105 C 13.845703 27.933105 11.797852 26.465332 13.243652 24.808594 C 13.243652 24.808594 10.964355 22.795898 12.814453 20.904785 C 12.814453 20.904785 11.57666 16.83252 14.953125 16.59668 C 14.953125 16.59668 14.563477 12.524414 19.032715 12.997559 C 19.032715 12.997559 21.534668 11.195801 23.387695 13.246582 C 23.387695 13.246582 25.92041 11.638184 27.231445 13.649414 " transform="matrix(2.666667,0,0,2.666667,0,0)"/>
<path style="fill:none;stroke-width:2;stroke-linecap:round;stroke-linejoin:round;stroke:rgb(0%,0%,0%);stroke-opacity:1;stroke-miterlimit:10;" d="M 58.999512 36 C 58.999512 48.703125 48.703125 58.999512 36 58.999512 C 23.296875 58.999512 13.000488 48.703125 13.000488 36 C 13.000488 23.296875 23.296875 13.000488 36 13.000488 C 48.703125 13.000488 58.999512 23.296875 58.999512 36 Z M 58.999512 36 " transform="matrix(2.666667,0,0,2.666667,0,0)"/>
<path style="fill:none;stroke-width:2;stroke-linecap:round;stroke-linejoin:round;stroke:rgb(0%,0%,0%);stroke-opacity:1;stroke-miterlimit:10;" d="M 58.154297 27.933105 C 58.154297 27.933105 60.202148 26.465332 58.756348 24.808594 C 58.756348 24.808594 61.035645 22.795898 59.185547 20.904785 C 59.185547 20.904785 60.42334 16.83252 57.046875 16.59668 C 57.046875 16.59668 57.436523 12.524414 52.967285 12.997559 C 52.967285 12.997559 50.465332 11.195801 48.612305 13.246582 C 48.612305 13.246582 46.07959 11.638184 44.768555 13.649414 " transform="matrix(2.666667,0,0,2.666667,0,0)"/>
<path style="fill:none;stroke-width:2;stroke-linecap:butt;stroke-linejoin:miter;stroke:rgb(0%,0%,0%);stroke-opacity:1;stroke-miterlimit:10;" d="M 31.271484 30.817383 C 31.271484 27.335449 29.704102 24.51416 27.770508 24.51416 C 25.838379 24.51416 24.270996 27.335449 24.270996 30.817383 C 24.270996 34.299316 25.838379 37.12207 27.770508 37.12207 C 29.704102 37.12207 31.271484 34.299316 31.271484 30.817383 Z M 31.271484 30.817383 " transform="matrix(2.666667,0,0,2.666667,0,0)"/>
<path style="fill:none;stroke-width:2;stroke-linecap:butt;stroke-linejoin:miter;stroke:rgb(0%,0%,0%);stroke-opacity:1;stroke-miterlimit:10;" d="M 47.729004 30.821777 C 47.729004 27.339844 46.161621 24.51709 44.229492 24.51709 C 42.295898 24.51709 40.728516 27.339844 40.728516 30.821777 C 40.728516 34.303711 42.295898 37.126465 44.229492 37.126465 C 46.161621 37.126465 47.729004 34.303711 47.729004 30.821777 Z M 47.729004 30.821777 " transform="matrix(2.666667,0,0,2.666667,0,0)"/>
<path style=" stroke:none;fill-rule:nonzero;fill:rgb(0%,0%,0%);fill-opacity:1;" d="M 103.292969 103.941406 C 103.292969 107.96875 100.027344 111.234375 96 111.234375 C 91.972656 111.234375 88.707031 107.96875 88.707031 103.941406 C 88.707031 99.914062 91.972656 96.648438 96 96.648438 C 100.027344 96.648438 103.292969 99.914062 103.292969 103.941406 Z M 103.292969 103.941406 "/>
<path style="fill:none;stroke-width:2.1;stroke-linecap:butt;stroke-linejoin:miter;stroke:rgb(57.254902%,82.745098%,96.078431%);stroke-opacity:1;stroke-miterlimit:10;" d="M 31.271484 30.817383 C 31.271484 27.335449 29.704102 24.51416 27.770508 24.51416 C 25.838379 24.51416 24.270996 27.335449 24.270996 30.817383 C 24.270996 34.299316 25.838379 37.12207 27.770508 37.12207 C 29.704102 37.12207 31.271484 34.299316 31.271484 30.817383 Z M 31.271484 30.817383 " transform="matrix(2.666667,0,0,2.666667,0,0)"/>
<path style="fill:none;stroke-width:2.1;stroke-linecap:butt;stroke-linejoin:miter;stroke:rgb(57.254902%,82.745098%,96.078431%);stroke-opacity:1;stroke-miterlimit:10;" d="M 47.729004 30.821777 C 47.729004 27.339844 46.161621 24.51709 44.229492 24.51709 C 42.295898 24.51709 40.728516 27.339844 40.728516 30.821777 C 40.728516 34.303711 42.295898 37.126465 44.229492 37.126465 C 46.161621 37.126465 47.729004 34.303711 47.729004 30.821777 Z M 47.729004 30.821777 " transform="matrix(2.666667,0,0,2.666667,0,0)"/>
<path style=" stroke:none;fill-rule:nonzero;fill:rgb(0%,0%,0%);fill-opacity:1;" d="M 80.714844 82.175781 C 80.714844 90.28125 77.195312 96.335938 74.046875 96.335938 C 70.898438 96.335938 67.378906 90.28125 67.378906 82.175781 C 67.378906 74.097656 70.898438 68.042969 74.046875 68.042969 C 77.195312 68.042969 80.714844 74.097656 80.714844 82.175781 Z M 80.714844 82.175781 "/>
<path style=" stroke:none;fill-rule:nonzero;fill:rgb(0%,0%,0%);fill-opacity:1;" d="M 124.605469 82.203125 C 124.605469 90.28125 121.085938 96.335938 117.941406 96.335938 C 114.792969 96.335938 111.273438 90.28125 111.273438 82.203125 C 111.273438 74.097656 114.792969 68.042969 117.941406 68.042969 C 121.085938 68.042969 124.605469 74.097656 124.605469 82.203125 Z M 124.605469 82.203125 "/>
<path style=" stroke:none;fill-rule:nonzero;fill:rgb(82.352941%,18.431373%,15.294118%);fill-opacity:1;" d="M 103.445312 103.941406 C 103.445312 107.96875 100.179688 111.234375 96.148438 111.234375 C 92.121094 111.234375 88.855469 107.96875 88.855469 103.941406 C 88.855469 99.914062 92.121094 96.648438 96.148438 96.648438 C 100.179688 96.648438 103.445312 99.914062 103.445312 103.941406 Z M 103.445312 103.941406 "/>
</g>
</svg>
