<?xml version="1.0" encoding="UTF-8" standalone="no"?>
<?xml-stylesheet type="text/css" href="./scss/general.css" ?>
<svg viewBox="0 0 512.00063 512.00063" xmlns="http://www.w3.org/2000/svg"><a href="/"/><path class='left-wing' d="m354.128906 4.394531-61.886718 61.886719c-62.492188 62.496094-62.492188 163.820312 0 226.316406l69.324218 69.320313c23.429688 23.429687 61.417969 23.429687 84.851563 0l46.6875-46.6875c25.195312-25.191407 25.195312-66.039063 0-91.234375-5.859375-5.859375-15.359375-5.859375-21.21875 0l-18.035157 18.035156c25.195313-25.195312 25.195313-66.042969 0-91.234375-5.859374-5.859375-15.359374-5.859375-21.21875 0l-18.03125 18.035156c25.191407-25.195312 25.191407-66.042969 0-91.238281-5.859374-5.859375-15.359374-5.859375-21.21875 0l-18.035156 18.035156c25.195313-25.191406 25.195313-66.039062 0-91.234375-5.859375-5.859375-15.359375-5.859375-21.21875 0zm0 0"></path><path class='right-wing' d="m4.394531 354.128906 61.53125-61.53125c62.496094-62.496094 163.824219-62.496094 226.316407 0l69.324218 69.320313c23.429688 23.429687 23.429688 61.421875 0 84.851562l-46.335937 46.335938c-25.191407 25.195312-66.039063 25.195312-91.234375 0-5.859375-5.859375-5.859375-15.359375 0-21.21875l18.035156-18.035157c-25.195312 25.195313-66.042969 25.195313-91.234375 0-5.859375-5.859374-5.859375-15.359374 0-21.21875l18.035156-18.03125c-25.195312 25.191407-66.042969 25.191407-91.238281 0-5.859375-5.859374-5.859375-15.359374 0-21.21875l18.035156-18.035156c-25.191406 25.195313-66.039062 25.195313-91.234375 0-5.859375-5.859375-5.859375-15.359375 0-21.21875zm0 0"></path></svg>